Coordinates
version=1
nRows=15
nColumns=46
inDegrees=yes

Units are S.I. units (second, meters, Newtons, ...)
Angles are in degrees.

endheader
time	pelvis_tilt	pelvis_list	pelvis_rotation	pelvis_tx	pelvis_ty	pelvis_tz	bb_angle	bb_tx	bb_ty	bb_tz	hip_flexion_r	hip_adduction_r	hip_rotation_r	knee_angle_r	knee_angle_r_beta	ankle_angle_r	subtalar_angle_r	mtp_angle_r	crank_angle_r	hip_flexion_l	hip_adduction_l	hip_rotation_l	knee_angle_l	knee_angle_l_beta	ankle_angle_l	subtalar_angle_l	mtp_angle_l	crank_angle_l	lumbar_extension	lumbar_bending	lumbar_rotation	arm_flex_r	arm_add_r	arm_rot_r	elbow_flex_r	pro_sup_r	wrist_flex_r	wrist_dev_r	arm_flex_l	arm_add_l	arm_rot_l	elbow_flex_l	pro_sup_l	wrist_flex_l	wrist_dev_l
      2.50000000	    -18.51694801	      4.87266261	      3.79723625	      0.15371404	      1.06134522	     -0.30145159	      0.00000000	      0.50000000	      0.00000000	      0.25000000	     66.43785032	     -5.45629422	      9.25417348	     89.68364671	      1.56527492	     -6.67145076	    -16.26459828	      0.00000000	      0.00000000	     69.05178510	     -0.53336982	     -1.38917478	     56.26231263	      0.98196260	      4.56790365	     -7.37307394	      0.00000000	      0.00000000	    -68.19064796	     -8.32574205	     -7.53141571	     88.72285980	    -23.91397648	     23.71234129	     65.94903910	     41.55356806	      0.00000000	      0.00000000	     89.66951637	    -10.17527771	     23.59693396	     81.66972406	     34.15457415	      0.00000000	      0.00000000
      2.50500000	    -18.38576333	      4.68946947	      3.50553458	      0.15416653	      1.06142089	     -0.30134956	      0.00000000	      0.50000000	      0.00000000	      0.25000000	     66.85748886	     -5.15908408	      9.14779292	     90.67126213	      1.58251206	     -6.37609243	    -16.37454549	      0.00000000	      0.00000000	     68.24204594	     -0.84839778	     -1.36578079	     55.15826066	      0.96269326	      3.84302550	     -7.11282911	      0.00000000	      0.00000000	    -68.30578806	     -8.41694355	     -7.20609235	     88.62246970	    -23.68432698	     22.66991318	     66.66268280	     41.80297873	      0.00000000	      0.00000000	     89.65377258	     -9.94809654	     23.12419540	     81.84068792	     35.11247601	      0.00000000	      0.00000000
      2.51000000	    -18.33476423	      4.48760588	      3.10005769	      0.15462061	      1.06125661	     -0.30101746	      0.00000000	      0.50000000	      0.00000000	      0.25000000	     67.42899434	     -4.75972268	      9.06548566	     91.67128675	      1.59996578	     -6.02219315	    -16.13451098	      0.00000000	      0.00000000	     67.53097980	     -1.29415283	     -1.39462709	     54.10236891	      0.94426447	      3.08216064	     -7.05138340	      0.00000000	      0.00000000	    -68.06364611	     -8.62501478	     -7.08268393	     88.76373663	    -23.53785974	     24.21681317	     65.42629458	     41.73687450	      0.00000000	      0.00000000	     89.64586035	    -10.43297197	     23.61162860	     81.10321561	     35.65583067	      0.00000000	      0.00000000
      2.51500000	    -18.21945521	      4.26227304	      2.69316169	      0.15512785	      1.06119793	     -0.30067220	      0.00000000	      0.50000000	      0.00000000	      0.25000000	     67.90572332	     -4.32408412	      8.98668164	     92.66904800	      1.61738000	     -5.60308802	    -15.94377965	      0.00000000	      0.00000000	     66.75353211	     -1.77656493	     -1.42064922	     53.07533361	      0.92633932	      2.43448578	     -6.72027116	      0.00000000	      0.00000000	    -67.98640067	     -8.79304587	     -6.92741839	     88.82043857	    -23.11742315	     24.51057069	     64.94668713	     41.78562272	      0.00000000	      0.00000000	     89.62820865	    -10.68897666	     23.44653907	     80.93881263	     36.28442153	      0.00000000	      0.00000000
      2.52000000	    -18.08523704	      4.07533508	      2.26682226	      0.15562752	      1.06121701	     -0.30020669	      0.00000000	      0.50000000	      0.00000000	      0.25000000	     68.37574840	     -3.86151887	      8.95549476	     93.66369140	      1.63473980	     -5.36244670	    -15.92840462	      0.00000000	      0.00000000	     65.93918716	     -2.27497172	     -1.53283290	     52.04335807	      0.90832795	      1.72915953	     -6.36186481	      0.00000000	      0.00000000	    -68.03453148	     -9.00209168	     -6.57852673	     88.77076437	    -22.81322923	     23.73448851	     65.37304644	     41.87239230	      0.00000000	      0.00000000	     89.60479952	    -10.57093173	     23.06951992	     80.97954244	     36.68831778	      0.00000000	      0.00000000
      2.52500000	    -18.06488039	      3.84420353	      1.85380620	      0.15624537	      1.06095745	     -0.30003270	      0.00000000	      0.50000000	      0.00000000	      0.25000000	     68.97317883	     -3.45059688	      8.87005271	     94.64689373	      1.65189992	     -4.94552852	    -15.61307571	      0.00000000	      0.00000000	     65.27817315	     -2.76581061	     -1.60740546	     51.08445284	      0.89159190	      1.06316748	     -6.17470161	      0.00000000	      0.00000000	    -67.72804110	     -9.17232234	     -6.50924020	     88.86370250	    -22.40208271	     24.98178033	     64.08390092	     41.69175137	      0.00000000	      0.00000000	     89.58853918	    -11.11235939	     23.50097962	     80.43965438	     36.75236604	      0.00000000	      0.00000000
      2.53000000	    -17.91306436	      3.63556227	      1.38844365	      0.15685065	      1.06087469	     -0.29960497	      0.00000000	      0.50000000	      0.00000000	      0.25000000	     69.47994505	     -2.96845971	      8.81416614	     95.72143098	      1.67065414	     -4.53812466	    -15.42495762	      0.00000000	      0.00000000	     64.51073338	     -3.36383766	     -1.83624642	     50.20072256	      0.87616790	      0.37247856	     -5.78936369	      0.00000000	      0.00000000	    -67.63934892	     -9.39259326	     -6.23731589	     88.86078979	    -22.04296504	     25.09472004	     63.68811626	     41.59278746	      0.00000000	      0.00000000	     89.56855946	    -11.29634487	     23.60263597	     80.09839613	     36.87814578	      0.00000000	      0.00000000
      2.53500000	    -17.77298328	      3.43696008	      0.99350866	      0.15737060	      1.06081633	     -0.29929623	      0.00000000	      0.50000000	      0.00000000	      0.25000000	     69.99339619	     -2.57339359	      8.71423693	     96.70322083	      1.68778960	     -4.26199512	    -15.27858509	      0.00000000	      0.00000000	     63.68795223	     -3.82778916	     -1.93917327	     49.20435223	      0.85877795	     -0.39311785	     -5.28341922	      0.00000000	      0.00000000	    -67.51860336	     -9.55924879	     -6.05186535	     88.87167175	    -21.61045347	     25.38371852	     62.93427521	     41.58504330	      0.00000000	      0.00000000	     89.54507382	    -11.47064328	     23.58137547	     79.72252640	     37.55737608	      0.00000000	      0.00000000
      2.54000000	    -17.62139472	      3.33710797	      0.51887384	      0.15800050	      1.06074606	     -0.29881472	      0.00000000	      0.50000000	      0.00000000	      0.25000000	     70.52834611	     -2.13101982	      8.74313003	     97.70156268	      1.70521395	     -4.10739071	    -15.33380719	      0.00000000	      0.00000000	     62.84346908	     -4.35140482	     -2.29809082	     48.22936514	      0.84176122	     -1.24623592	     -4.95439971	      0.00000000	      0.00000000	    -67.54335275	     -9.85863150	     -5.76965025	     88.75238444	    -21.43392009	     24.59476505	     63.49703833	     41.71720237	      0.00000000	      0.00000000	     89.51330696	    -11.41652764	     23.24915764	     79.81735329	     38.02006825	      0.00000000	      0.00000000
      2.54500000	    -17.39911878	      3.16885782	      0.14932231	      0.15853654	      1.06085450	     -0.29848876	      0.00000000	      0.50000000	      0.00000000	      0.25000000	     70.96650464	     -1.79453453	      8.64883833	     98.66838643	      1.72208821	     -3.75963350	    -15.17062302	      0.00000000	      0.00000000	     61.86243692	     -4.75536964	     -2.43743063	     47.11348734	      0.82228548	     -2.08040610	     -4.69186777	      0.00000000	      0.00000000	    -67.49972898	    -10.01478434	     -5.56138559	     88.74672230	    -21.04457194	     24.75494904	     62.95966450	     41.70574933	      0.00000000	      0.00000000	     89.48938837	    -11.50903230	     23.32647167	     79.17214581	     38.21695395	      0.00000000	      0.00000000
      2.55000000	    -17.22700183	      2.92597879	     -0.18568162	      0.15898520	      1.06064746	     -0.29823142	      0.00000000	      0.50000000	      0.00000000	      0.25000000	     71.48953304	     -1.42664897	      8.51776003	     99.67195228	      1.73960374	     -3.39502523	    -14.85082361	      0.00000000	      0.00000000	     61.07880728	     -5.20108224	     -2.49818703	     46.26005541	      0.80739028	     -2.83536055	     -4.26713322	      0.00000000	      0.00000000	    -67.21420045	    -10.06469169	     -5.45258752	     88.90457342	    -20.39066197	     25.87280162	     61.20976613	     41.51965170	      0.00000000	      0.00000000	     89.45482700	    -11.96653785	     23.74341175	     78.13900938	     38.44646968	      0.00000000	      0.00000000
      2.55500000	    -17.02718107	      2.91020953	     -0.57602949	      0.15951338	      1.06060279	     -0.29822452	      0.00000000	      0.50000000	      0.00000000	      0.25000000	     72.05959266	     -1.21444440	      8.55710745	    100.66306041	      1.75690184	     -3.33649321	    -14.83058770	      0.00000000	      0.00000000	     60.13098663	     -5.51141614	     -2.81025606	     45.23276600	      0.78946070	     -3.65598465	     -4.01071279	      0.00000000	      0.00000000	    -67.27185151	    -10.27109432	     -5.19292289	     88.75648871	    -20.08814662	     24.73885325	     61.60762527	     41.74056919	      0.00000000	      0.00000000	     89.41431287	    -11.70101547	     23.20066315	     78.05355622	     39.24642533	      0.00000000	      0.00000000
      2.56000000	    -16.84387999	      2.58994861	     -0.88536598	      0.16007724	      1.06034592	     -0.29807356	      0.00000000	      0.50000000	      0.00000000	      0.25000000	     72.58514425	     -0.89722251	      8.29879199	    101.64750778	      1.77408369	     -2.89721765	    -14.39880571	      0.00000000	      0.00000000	     59.36829299	     -6.00784153	     -2.88175836	     44.45155000	      0.77582591	     -4.39658534	     -3.48069818	      0.00000000	      0.00000000	    -66.93134171	    -10.23014781	     -5.05220769	     88.92693362	    -19.44889968	     26.37563115	     59.86935246	     41.21440948	      0.00000000	      0.00000000	     89.36252034	    -12.35423847	     23.93513758	     77.01074282	     38.67604227	      0.00000000	      0.00000000
      2.56500000	    -16.42489714	      2.21756895	     -1.28777974	      0.16101589	      1.06090980	     -0.29729150	      0.00000000	      0.50000000	      0.00000000	      0.25000000	     72.75456626	     -0.40384430	      7.97160768	    102.50395429	      1.78903150	     -2.65689795	    -14.44231597	      0.00000000	      0.00000000	     58.22957386	     -6.69171404	     -3.09982904	     43.54070633	      0.75992868	     -5.08736526	     -2.80458083	      0.00000000	      0.00000000	    -67.11970648	    -10.28793109	     -4.57147646	     88.86441725	    -19.10495128	     25.99490650	     60.02456507	     41.33678258	      0.00000000	      0.00000000	     89.29702124	    -12.34407579	     23.67291668	     76.87484244	     39.02824722	      0.00000000	      0.00000000
      2.57000000	    -16.22289639	      2.10266962	     -1.56543122	      0.16153195	      1.06056822	     -0.29727816	      0.00000000	      0.50000000	      0.00000000	      0.25000000	     73.36539159	     -0.27544410	      7.86779082	    103.52152895	      1.80679153	     -2.44638735	    -14.18808314	      0.00000000	      0.00000000	     57.39461754	     -6.99047539	     -3.32738580	     42.72718357	      0.74573003	     -5.84612833	     -2.43807760	      0.00000000	      0.00000000	    -66.82611858	    -10.34829942	     -4.45414725	     88.94463742	    -18.47995504	     26.84227302	     58.16925075	     41.38964182	      0.00000000	      0.00000000	     89.24400945	    -12.58578377	     24.08853463	     75.45115834	     39.93049118	      0.00000000	      0.00000000
